<svg width="32" height="32" viewBox="0 0 32 32" fill="none" xmlns="http://www.w3.org/2000/svg">
<path d="M18.6663 8.00016C18.6663 9.47292 17.4724 10.6668 15.9997 10.6668C14.5269 10.6668 13.333 9.47292 13.333 8.00016C13.333 6.5274 14.5269 5.3335 15.9997 5.3335C17.4724 5.3335 18.6663 6.5274 18.6663 8.00016Z" fill="black"/>
<path d="M18.6663 16.0002C18.6663 17.4729 17.4724 18.6668 15.9997 18.6668C14.5269 18.6668 13.333 17.4729 13.333 16.0002C13.333 14.5274 14.5269 13.3335 15.9997 13.3335C17.4724 13.3335 18.6663 14.5274 18.6663 16.0002Z" fill="black"/>
<path d="M18.6663 24.0002C18.6663 25.4729 17.4724 26.6668 15.9997 26.6668C14.5269 26.6668 13.333 25.4729 13.333 24.0002C13.333 22.5274 14.5269 21.3335 15.9997 21.3335C17.4724 21.3335 18.6663 22.5274 18.6663 24.0002Z" fill="black"/>
</svg>
